HIERARCHY
ROOT Hips
{
	OFFSET -395.419647 -566.670227 89.000702
	CHANNELS 6 Xposition Yposition Zposition Zrotation Yrotation Xrotation
	JOINT Spine
	{
		OFFSET 0.000000 2.080078 8.814247
		CHANNELS 6 Xposition Yposition Zposition Zrotation Yrotation Xrotation
		JOINT Spine1
		{
			OFFSET 0.000000 0.000000 8.844139
			CHANNELS 6 Xposition Yposition Zposition Zrotation Yrotation Xrotation
			JOINT Spine2
			{
				OFFSET 0.000000 0.000000 11.682266
				CHANNELS 6 Xposition Yposition Zposition Zrotation Yrotation Xrotation
				JOINT Spine3
				{
					OFFSET 0.000000 0.000000 11.746704
					CHANNELS 6 Xposition Yposition Zposition Zrotation Yrotation Xrotation
					JOINT Neck
					{
						OFFSET 0.000000 0.000000 17.658264
						CHANNELS 6 Xposition Yposition Zposition Zrotation Yrotation Xrotation
						JOINT Neck1
						{
							OFFSET 0.000000 0.000000 5.101517
							CHANNELS 6 Xposition Yposition Zposition Zrotation Yrotation Xrotation
							JOINT Head
							{
								OFFSET 0.000000 0.000000 5.101517
								CHANNELS 6 Xposition Yposition Zposition Zrotation Yrotation Xrotation
								JOINT HeadEnd
								{
									OFFSET 0.000000 0.000000 11.655090
									CHANNELS 6 Xposition Yposition Zposition Zrotation Yrotation Xrotation
									End Site
									{
										OFFSET 0.000000 0.000000 0.100006
									}
								}
							}
						}
					}
					JOINT RightShoulder
					{
						OFFSET -2.625397 0.000000 11.175217
						CHANNELS 6 Xposition Yposition Zposition Zrotation Yrotation Xrotation
						JOINT RightArm
						{
							OFFSET 0.000000 0.000000 10.434708
							CHANNELS 6 Xposition Yposition Zposition Zrotation Yrotation Xrotation
							JOINT RightForeArm
							{
								OFFSET 0.000000 0.000000 29.628418
								CHANNELS 6 Xposition Yposition Zposition Zrotation Yrotation Xrotation
								JOINT RightHand
								{
									OFFSET 0.000000 0.000000 22.857605
									CHANNELS 6 Xposition Yposition Zposition Zrotation Yrotation Xrotation
									JOINT RightHandThumb1
									{
										OFFSET -2.867310 -2.944275 3.959564
										CHANNELS 6 Xposition Yposition Zposition Zrotation Yrotation Xrotation
										JOINT RightHandThumb2
										{
											OFFSET 0.000000 0.000000 3.350403
											CHANNELS 6 Xposition Yposition Zposition Zrotation Yrotation Xrotation
											JOINT RightHandThumb3
											{
												OFFSET 0.000000 0.000000 3.756516
												CHANNELS 6 Xposition Yposition Zposition Zrotation Yrotation Xrotation
												JOINT RightHandThumb4
												{
													OFFSET 0.000000 0.000000 3.147339
													CHANNELS 6 Xposition Yposition Zposition Zrotation Yrotation Xrotation
													End Site
													{
														OFFSET 0.000000 0.000000 0.100006
													}
												}
											}
										}
									}
									JOINT RightHandIndex1
									{
										OFFSET -0.086761 -2.345276 10.030899
										CHANNELS 6 Xposition Yposition Zposition Zrotation Yrotation Xrotation
										JOINT RightHandIndex2
										{
											OFFSET 0.000000 0.000000 4.061096
											CHANNELS 6 Xposition Yposition Zposition Zrotation Yrotation Xrotation
											JOINT RightHandIndex3
											{
												OFFSET 0.000000 0.000000 3.248871
												CHANNELS 6 Xposition Yposition Zposition Zrotation Yrotation Xrotation
												JOINT RightHandIndex4
												{
													OFFSET 0.000000 0.000000 2.639709
													CHANNELS 6 Xposition Yposition Zposition Zrotation Yrotation Xrotation
													End Site
													{
														OFFSET 0.000000 0.000000 0.100006
													}
												}
											}
										}
									}
									JOINT RightHandMiddle1
									{
										OFFSET 0.104095 -0.006775 9.502945
										CHANNELS 6 Xposition Yposition Zposition Zrotation Yrotation Xrotation
										JOINT RightHandMiddle2
										{
											OFFSET 0.000000 0.000000 4.568726
											CHANNELS 6 Xposition Yposition Zposition Zrotation Yrotation Xrotation
											JOINT RightHandMiddle3
											{
												OFFSET 0.000000 0.000000 3.654984
												CHANNELS 6 Xposition Yposition Zposition Zrotation Yrotation Xrotation
												JOINT RightHandMiddle4
												{
													OFFSET 0.000000 0.000000 2.741241
													CHANNELS 6 Xposition Yposition Zposition Zrotation Yrotation Xrotation
													End Site
													{
														OFFSET 0.000000 0.000000 0.100006
													}
												}
											}
										}
									}
									JOINT RightHandRing1
									{
										OFFSET 0.086761 2.267456 8.921707
										CHANNELS 6 Xposition Yposition Zposition Zrotation Yrotation Xrotation
										JOINT RightHandRing2
										{
											OFFSET 0.000000 0.000000 4.061096
											CHANNELS 6 Xposition Yposition Zposition Zrotation Yrotation Xrotation
											JOINT RightHandRing3
											{
												OFFSET 0.000000 0.000000 3.654984
												CHANNELS 6 Xposition Yposition Zposition Zrotation Yrotation Xrotation
												JOINT RightHandRing4
												{
													OFFSET 0.000000 0.000000 2.741241
													CHANNELS 6 Xposition Yposition Zposition Zrotation Yrotation Xrotation
													End Site
													{
														OFFSET 0.000000 0.000000 0.100006
													}
												}
											}
										}
									}
									JOINT RightHandPinky1
									{
										OFFSET -0.173492 4.467224 7.976990
										CHANNELS 6 Xposition Yposition Zposition Zrotation Yrotation Xrotation
										JOINT RightHandPinky2
										{
											OFFSET 0.000000 0.000000 3.350403
											CHANNELS 6 Xposition Yposition Zposition Zrotation Yrotation Xrotation
											JOINT RightHandPinky3
											{
												OFFSET 0.000000 0.000000 2.842758
												CHANNELS 6 Xposition Yposition Zposition Zrotation Yrotation Xrotation
												JOINT RightHandPinky4
												{
													OFFSET 0.000000 0.000000 2.639709
													CHANNELS 6 Xposition Yposition Zposition Zrotation Yrotation Xrotation
													End Site
													{
														OFFSET 0.000000 0.000000 0.100006
													}
												}
											}
										}
									}
									JOINT RightForeArmEnd
									{
										OFFSET 0.000000 0.000000 0.000000
										CHANNELS 6 Xposition Yposition Zposition Zrotation Yrotation Xrotation
										End Site
										{
											OFFSET 0.000000 0.000000 0.100006
										}
									}
								}
								JOINT RightArmEnd
								{
									OFFSET 0.000000 0.000000 0.000000
									CHANNELS 6 Xposition Yposition Zposition Zrotation Yrotation Xrotation
									End Site
									{
										OFFSET 0.000000 0.000000 0.100006
									}
								}
							}
						}
					}
					JOINT LeftShoulder
					{
						OFFSET 2.625397 0.000000 11.175217
						CHANNELS 6 Xposition Yposition Zposition Zrotation Yrotation Xrotation
						JOINT LeftArm
						{
							OFFSET 0.000000 0.000000 10.813629
							CHANNELS 6 Xposition Yposition Zposition Zrotation Yrotation Xrotation
							JOINT LeftForeArm
							{
								OFFSET 0.000000 0.000000 28.724777
								CHANNELS 6 Xposition Yposition Zposition Zrotation Yrotation Xrotation
								JOINT LeftHand
								{
									OFFSET 0.644379 0.328857 25.716171
									CHANNELS 6 Xposition Yposition Zposition Zrotation Yrotation Xrotation
									JOINT LeftHandThumb1
									{
										OFFSET 2.867310 -2.944275 3.959564
										CHANNELS 6 Xposition Yposition Zposition Zrotation Yrotation Xrotation
										JOINT LeftHandThumb2
										{
											OFFSET 0.000000 0.000000 3.350403
											CHANNELS 6 Xposition Yposition Zposition Zrotation Yrotation Xrotation
											JOINT LeftHandThumb3
											{
												OFFSET 0.000000 0.000000 3.756516
												CHANNELS 6 Xposition Yposition Zposition Zrotation Yrotation Xrotation
												JOINT LeftHandThumb4
												{
													OFFSET 0.000000 0.000000 3.100006
													CHANNELS 6 Xposition Yposition Zposition Zrotation Yrotation Xrotation
													End Site
													{
														OFFSET 0.000000 0.000000 0.100006
													}
												}
											}
										}
									}
									JOINT LeftHandIndex1
									{
										OFFSET 0.086761 -2.345276 10.030899
										CHANNELS 6 Xposition Yposition Zposition Zrotation Yrotation Xrotation
										JOINT LeftHandIndex2
										{
											OFFSET 0.000000 0.000000 4.061096
											CHANNELS 6 Xposition Yposition Zposition Zrotation Yrotation Xrotation
											JOINT LeftHandIndex3
											{
												OFFSET 0.000000 0.000000 3.248871
												CHANNELS 6 Xposition Yposition Zposition Zrotation Yrotation Xrotation
												JOINT LeftHandIndex4
												{
													OFFSET 0.000000 0.000000 2.639709
													CHANNELS 6 Xposition Yposition Zposition Zrotation Yrotation Xrotation
													End Site
													{
														OFFSET 0.000000 0.000000 0.100006
													}
												}
											}
										}
									}
									JOINT LeftHandMiddle1
									{
										OFFSET -0.104095 -0.006775 9.502945
										CHANNELS 6 Xposition Yposition Zposition Zrotation Yrotation Xrotation
										JOINT LeftHandMiddle2
										{
											OFFSET 0.000000 0.000000 4.568726
											CHANNELS 6 Xposition Yposition Zposition Zrotation Yrotation Xrotation
											JOINT LeftHandMiddle3
											{
												OFFSET 0.000000 0.000000 3.654984
												CHANNELS 6 Xposition Yposition Zposition Zrotation Yrotation Xrotation
												JOINT LeftHandMiddle4
												{
													OFFSET 0.000000 0.000000 2.741241
													CHANNELS 6 Xposition Yposition Zposition Zrotation Yrotation Xrotation
													End Site
													{
														OFFSET 0.000000 0.000000 0.100006
													}
												}
											}
										}
									}
									JOINT LeftHandRing1
									{
										OFFSET -0.086761 2.267456 8.921707
										CHANNELS 6 Xposition Yposition Zposition Zrotation Yrotation Xrotation
										JOINT LeftHandRing2
										{
											OFFSET 0.000000 0.000000 4.061096
											CHANNELS 6 Xposition Yposition Zposition Zrotation Yrotation Xrotation
											JOINT LeftHandRing3
											{
												OFFSET 0.000000 0.000000 3.654984
												CHANNELS 6 Xposition Yposition Zposition Zrotation Yrotation Xrotation
												JOINT LeftHandRing4
												{
													OFFSET 0.000000 0.000000 2.741241
													CHANNELS 6 Xposition Yposition Zposition Zrotation Yrotation Xrotation
													End Site
													{
														OFFSET 0.000000 0.000000 0.100006
													}
												}
											}
										}
									}
									JOINT LeftHandPinky1
									{
										OFFSET 0.173492 4.467224 7.976990
										CHANNELS 6 Xposition Yposition Zposition Zrotation Yrotation Xrotation
										JOINT LeftHandPinky2
										{
											OFFSET 0.000000 0.000000 3.350403
											CHANNELS 6 Xposition Yposition Zposition Zrotation Yrotation Xrotation
											JOINT LeftHandPinky3
											{
												OFFSET 0.000000 0.000000 2.842758
												CHANNELS 6 Xposition Yposition Zposition Zrotation Yrotation Xrotation
												JOINT LeftHandPinky4
												{
													OFFSET 0.000000 0.000000 2.639709
													CHANNELS 6 Xposition Yposition Zposition Zrotation Yrotation Xrotation
													End Site
													{
														OFFSET 0.000000 0.000000 0.100006
													}
												}
											}
										}
									}
									JOINT LeftForeArmEnd
									{
										OFFSET 0.000000 0.000000 0.000000
										CHANNELS 6 Xposition Yposition Zposition Zrotation Yrotation Xrotation
										End Site
										{
											OFFSET 0.000000 0.000000 0.100006
										}
									}
								}
								JOINT LeftArmEnd
								{
									OFFSET 0.000000 0.000000 0.000000
									CHANNELS 6 Xposition Yposition Zposition Zrotation Yrotation Xrotation
									End Site
									{
										OFFSET 0.000000 0.000000 0.100006
									}
								}
							}
						}
					}
				}
			}
		}
	}
	JOINT RightUpLeg
	{
		OFFSET -11.289948 0.000000 0.000000
		CHANNELS 6 Xposition Yposition Zposition Zrotation Yrotation Xrotation
		JOINT RightLeg
		{
			OFFSET 0.000000 0.000000 -38.200329
			CHANNELS 6 Xposition Yposition Zposition Zrotation Yrotation Xrotation
			JOINT RightFoot
			{
				OFFSET 0.000000 0.000000 -39.900856
				CHANNELS 6 Xposition Yposition Zposition Zrotation Yrotation Xrotation
				JOINT RightToeBase
				{
					OFFSET 0.000000 -15.261658 0.000001
					CHANNELS 6 Xposition Yposition Zposition Zrotation Yrotation Xrotation
					JOINT RightToeBaseEnd
					{
						OFFSET 0.000000 -7.370728 0.000001
						CHANNELS 6 Xposition Yposition Zposition Zrotation Yrotation Xrotation
						End Site
						{
							OFFSET 0.000000 0.000000 0.100000
						}
					}
				}
				JOINT RightLegEnd
				{
					OFFSET 0.000000 0.000000 0.000000
					CHANNELS 6 Xposition Yposition Zposition Zrotation Yrotation Xrotation
					End Site
					{
						OFFSET 0.000000 0.000000 0.100000
					}
				}
			}
			JOINT RightUpLegEnd
			{
				OFFSET 0.000000 0.000000 0.000000
				CHANNELS 6 Xposition Yposition Zposition Zrotation Yrotation Xrotation
				End Site
				{
					OFFSET 0.000000 0.000000 0.099998
				}
			}
		}
	}
	JOINT LeftUpLeg
	{
		OFFSET 11.315674 0.000000 0.000000
		CHANNELS 6 Xposition Yposition Zposition Zrotation Yrotation Xrotation
		JOINT LeftLeg
		{
			OFFSET 0.000000 0.000000 -38.200329
			CHANNELS 6 Xposition Yposition Zposition Zrotation Yrotation Xrotation
			JOINT LeftFoot
			{
				OFFSET 0.000000 0.000000 -39.900856
				CHANNELS 6 Xposition Yposition Zposition Zrotation Yrotation Xrotation
				JOINT LeftToeBase
				{
					OFFSET 0.000000 -15.261658 0.000001
					CHANNELS 6 Xposition Yposition Zposition Zrotation Yrotation Xrotation
					JOINT LeftToeBaseEnd
					{
						OFFSET 0.000000 -7.539978 0.000001
						CHANNELS 6 Xposition Yposition Zposition Zrotation Yrotation Xrotation
						End Site
						{
							OFFSET 0.000000 0.000000 0.100000
						}
					}
				}
				JOINT LeftLegEnd
				{
					OFFSET 0.000000 0.000000 0.000000
					CHANNELS 6 Xposition Yposition Zposition Zrotation Yrotation Xrotation
					End Site
					{
						OFFSET 0.000000 0.000000 0.100000
					}
				}
			}
			JOINT LeftUpLegEnd
			{
				OFFSET 0.000000 0.000000 0.000000
				CHANNELS 6 Xposition Yposition Zposition Zrotation Yrotation Xrotation
				End Site
				{
					OFFSET 0.000000 0.000000 0.099998
				}
			}
		}
	}
}
MOTION
Frames: 2
Frame Time: 0.016667
28.056610 -26.651245 86.200539 -12.149714 -3.311923 -22.786882 0.000011 2.080081 8.814234 0.577470 -1.033049 11.139501 -0.000010 -0.000023 8.844139 -0.049851 -2.565748 4.062379 0.000013 0.000017 11.682274 9.043758 4.942725 15.679879 0.000036 -0.000029 11.746677 4.292191 4.377105 8.422689 -0.000004 -0.000010 17.658283 -4.467523 -8.515612 19.274493 0.000005 -0.000019 5.101523 -3.569211 0.009436 0.888581 -0.000004 0.000034 5.101515 -0.104913 -2.414739 -21.686146 0.000003 0.000008 11.655082 -0.000002 0.000000 0.000001 -2.625419 -0.000012 11.175211 22.613291 -88.961015 1.853018 -0.000015 0.000031 10.434702 -42.369566 -3.539791 60.939836 0.000002 0.000013 29.628408 21.026008 2.046767 11.529301 -0.000053 0.000046 22.857590 -5.013408 -21.789202 -9.143966 -2.867294 -2.944244 3.959549 31.491120 -19.956158 47.542341 0.000000 0.000000 3.350388 -18.670561 10.260345 -32.718915 -0.000004 0.000000 3.756542 -12.336381 8.289239 -22.315609 0.000015 0.000003 3.147339 -0.000000 -0.000001 0.000001 -0.086746 -2.345268 10.030888 -17.873466 -35.799415 4.823689 0.000033 -0.000029 4.061127 -0.364462 -25.425015 3.830717 -0.000006 -0.000032 3.248856 -0.864477 -25.425092 3.830724 0.000003 -0.000002 2.639721 0.000000 -0.000002 0.000001 0.104095 -0.006781 9.502949 -11.045130 -33.905862 2.481578 0.000011 0.000018 4.568743 0.211356 -24.173235 1.347913 -0.000001 0.000019 3.655020 -0.288662 -24.173127 1.347910 -0.000011 -0.000000 2.741268 0.000000 0.000001 -0.000000 0.086745 2.267430 8.921721 -1.541942 -34.881117 0.417096 0.000005 0.000008 4.061115 -0.647364 -24.689039 -1.611222 0.000005 -0.000018 3.654974 0.352627 -24.688957 -1.611239 0.000012 -0.000004 2.741257 0.000000 0.000000 0.000000 -0.173485 4.467278 7.976973 8.918512 -33.756362 -3.351205 -0.000015 -0.000016 3.350399 -0.998700 -23.416156 -4.828946 0.000000 0.000004 2.842785 1.001294 -23.416151 -4.828945 0.000004 0.000002 2.639726 -0.000000 0.000001 0.000001 -0.000012 -0.000003 0.000010 -0.000000 0.000002 0.000000 0.000005 -0.000001 0.000008 0.000000 -0.000001 -0.000000 2.625393 -0.000020 11.175214 -9.122516 90.734774 -1.321734 0.000015 -0.000009 10.813637 36.325702 40.602743 30.091324 -0.000031 -0.000008 28.724819 -12.508987 0.813101 63.847365 0.644379 0.328850 25.716187 -64.096271 31.841160 -24.537154 2.867321 -2.944305 3.959564 -31.493333 19.227408 48.594057 -0.000008 0.000023 3.350403 17.040045 -9.871824 -30.074617 0.000000 -0.000015 3.756527 11.274525 -7.830385 -20.528325 0.000004 -0.000009 3.100010 0.000001 -0.000001 -0.000001 0.086769 -2.345255 10.030876 -3.897962 29.123257 -7.905482 0.000019 0.000004 4.061068 -0.079007 21.098364 -3.108423 -0.000036 -0.000014 3.248859 -0.579005 21.098371 -3.108419 -0.000006 -0.000002 2.639713 -0.000000 -0.000003 -0.000001 -0.104078 -0.006787 9.502905 1.525180 28.430555 -2.907275 -0.000009 0.000015 4.568744 0.301265 20.293469 -1.110429 0.000011 0.000010 3.654960 -0.198739 20.293460 -1.110431 0.000005 -0.000008 2.741246 0.000001 -0.000001 0.000000 -0.086784 2.267456 8.921707 11.157650 30.167825 5.254453 -0.000008 0.000010 4.061084 -0.733809 21.656718 1.391627 0.000017 0.000016 3.655000 0.266195 21.656718 1.391627 -0.000040 0.000007 2.741247 -0.000002 -0.000001 0.000002 0.173477 4.467267 7.976982 20.491276 27.762257 13.929725 -0.000008 0.000025 3.350407 -1.204185 21.029580 4.285769 0.000015 0.000012 2.842762 0.795798 21.029664 4.285724 0.000010 0.000019 2.639685 -0.000003 -0.000000 0.000001 0.000009 -0.000014 -0.000021 0.000002 -0.000001 0.000000 -0.000005 0.000024 -0.000002 -0.000003 -0.000000 0.000003 -11.289989 0.000012 0.000010 -4.237377 21.980216 3.063153 -0.000016 -0.000007 -38.200340 -1.241678 0.899633 35.918889 -0.000007 -0.000003 -39.900848 -13.470990 -10.635240 27.923166 0.000008 -15.261721 0.000013 0.132288 1.128379 -24.011569 -0.000028 -7.370663 0.000001 -0.000000 0.000001 0.000001 -0.000031 -0.000009 0.000001 0.000001 0.000001 0.000001 -0.000012 0.000005 -0.000003 -0.000000 0.000001 0.000001 11.315660 -0.000055 -0.000004 -1.780806 7.548875 13.458136 -0.000022 -0.000038 -38.200321 -0.151688 0.063447 22.733600 -0.000034 -0.000047 -39.900864 22.381082 -3.232585 8.734038 0.000005 -15.261759 0.000006 -0.729328 0.339477 -18.388100 0.000000 -7.539973 0.000001 -0.000001 0.000000 0.000000 0.000002 0.000003 0.000002 -0.000000 -0.000000 -0.000000 -0.000020 0.000002 -0.000007 -0.000000 -0.000000 -0.000000 
27.950989 -26.606506 86.235413 -10.380932 -3.301823 -22.603232 0.000006 2.080086 8.814243 0.507416 -1.042407 11.152894 -0.000006 -0.000012 8.844139 0.082963 -2.279919 3.989348 0.000006 -0.000002 11.682281 9.188929 5.092357 15.619984 0.000016 -0.000008 11.746696 4.295672 4.319196 8.379405 -0.000008 0.000008 17.658287 -5.566967 -9.592055 18.676266 -0.000013 0.000016 5.101528 -4.266870 -0.050322 0.636480 -0.000013 -0.000002 5.101498 -0.113804 -2.730507 -21.093692 -0.000003 -0.000000 11.655086 0.000000 0.000000 0.000001 -2.625415 -0.000001 11.175212 19.393229 -89.819706 3.958944 0.000031 -0.000031 10.434681 -43.320967 -5.508928 61.280430 -0.000010 0.000004 29.628452 23.894153 1.449156 13.880349 -0.000042 -0.000015 22.857586 -3.652529 -17.329481 -6.395889 -2.867313 -2.944244 3.959534 31.493326 -19.227421 48.594064 -0.000011 0.000008 3.350395 -17.040031 9.871824 -30.074610 0.000008 0.000000 3.756542 -11.274516 7.830372 -20.528320 0.000005 -0.000009 3.147340 0.000001 0.000000 0.000000 -0.086792 -2.345278 10.030930 -15.796308 -29.807168 8.391760 -0.000006 0.000026 4.061108 -0.110159 -21.625303 3.193945 0.000016 0.000019 3.248898 -0.610163 -21.625316 3.193960 -0.000035 -0.000003 2.639714 0.000000 0.000001 0.000000 0.104111 -0.006768 9.502953 -9.347061 -27.790844 5.763647 -0.000007 0.000010 4.568713 0.308015 -19.963596 1.090783 -0.000019 0.000019 3.655012 -0.191919 -19.962775 1.090672 0.000008 0.000000 2.741265 0.000000 0.000001 -0.000000 0.086769 2.267437 8.921719 -0.034164 -26.982630 4.893179 0.000011 -0.000006 4.061083 -0.801835 -18.829901 -1.195092 0.000013 0.000007 3.654970 0.198186 -18.829875 -1.195113 0.000005 -0.000001 2.741253 0.000000 -0.000003 -0.000000 -0.173515 4.467283 7.976988 9.757543 -25.117865 3.172826 -0.000002 0.000018 3.350424 -1.517676 -16.559792 -3.313492 -0.000005 0.000026 2.842764 0.482328 -16.559956 -3.313490 0.000001 0.000002 2.639715 -0.000000 0.000001 0.000001 -0.000002 -0.000003 0.000012 0.000001 -0.000001 -0.000000 0.000009 0.000003 -0.000009 -0.000000 0.000003 0.000000 2.625391 0.000015 11.175213 -10.008588 90.545468 -1.525209 0.000000 -0.000023 10.813629 35.310111 38.896578 30.946426 0.000011 0.000015 28.724789 -11.834349 0.705566 63.552909 0.644333 0.328842 25.716187 -62.097785 31.402963 -24.393239 2.867306 -2.944321 3.959595 -31.493333 19.227399 48.594060 0.000000 0.000023 3.350418 17.040043 -9.871808 -30.074655 -0.000004 0.000000 3.756554 11.274512 -7.830405 -20.528279 -0.000015 0.000015 3.100051 -0.000002 -0.000000 -0.000000 0.086730 -2.345247 10.030914 -3.825387 29.754777 -7.612020 0.000015 -0.000001 4.061110 -0.103112 21.507449 -3.174772 -0.000004 -0.000023 3.248901 -0.603111 21.507578 -3.174775 0.000010 -0.000009 2.639716 0.000001 -0.000001 0.000000 -0.104109 -0.006766 9.502968 1.619112 28.920773 -2.898022 -0.000016 0.000003 4.568727 0.293989 20.641766 -1.131229 -0.000003 0.000007 3.654971 -0.206018 20.641759 -1.131227 -0.000011 -0.000005 2.741270 0.000001 -0.000002 0.000000 -0.086746 2.267464 8.921738 11.239843 30.482837 4.606473 -0.000004 -0.000011 4.061093 -0.728872 21.844226 1.404918 -0.000010 -0.000006 3.655001 0.271122 21.844183 1.404922 -0.000012 -0.000010 2.741254 0.000002 0.000001 -0.000000 0.173485 4.467226 7.977005 20.611604 28.179909 12.487003 -0.000002 0.000008 3.350414 -1.199608 21.086472 4.298512 0.000003 0.000007 2.842754 0.800402 21.086659 4.298505 0.000038 0.000006 2.639709 -0.000001 0.000001 0.000001 -0.000013 0.000012 0.000004 -0.000001 0.000002 0.000002 -0.000012 -0.000013 -0.000021 0.000002 -0.000005 0.000003 -11.289993 0.000002 0.000004 -5.439978 22.755052 3.581227 -0.000028 0.000019 -38.200394 -1.444510 1.022518 35.286188 -0.000016 -0.000039 -39.900841 -12.673555 -12.151122 27.803361 -0.000041 -15.261672 0.000030 0.012025 1.793021 -24.003730 0.000007 -7.370735 0.000001 0.000001 0.000000 0.000000 -0.000004 0.000000 -0.000000 -0.000000 -0.000000 -0.000000 -0.000022 0.000043 0.000008 0.000003 0.000001 -0.000001 11.315643 -0.000021 -0.000004 -2.466102 7.622347 13.007489 -0.000043 0.000052 -38.200298 -0.161163 0.064627 22.714361 -0.000015 0.000034 -39.900856 21.179250 -3.201396 9.063460 -0.000043 -15.261662 0.000018 -0.735808 0.342103 -18.615196 -0.000001 -7.539976 0.000000 -0.000000 0.000000 0.000000 -0.000000 -0.000001 0.000000 0.000000 -0.000000 0.000001 -0.000022 0.000003 -0.000003 -0.000000 0.000000 0.000000 
